<?xml version="1.0" encoding="UTF-8" standalone="no"?>
<svg
   xmlns:dc="http://purl.org/dc/elements/1.1/"
   xmlns:cc="http://creativecommons.org/ns#"
   xmlns:rdf="http://www.w3.org/1999/02/22-rdf-syntax-ns#"
   xmlns:svg="http://www.w3.org/2000/svg"
   xmlns="http://www.w3.org/2000/svg"
   xmlns:sodipodi="http://sodipodi.sourceforge.net/DTD/sodipodi-0.dtd"
   xmlns:inkscape="http://www.inkscape.org/namespaces/inkscape"
   width="84mm"
   height="96mm"
   viewBox="0 0 84 96"
   version="1.1"
   id="svg8"
   inkscape:version="1.0.1 (3bc2e813f5, 2020-09-07)"
   sodipodi:docname="logo-svg.svg">
  <defs
     id="defs2">
    <clipPath
       id="SvgjsClipPath1002">
      <path
         d="M 0,-6.8806798 H 5.731494 V -0.25 H 0 Z"
         id="path853" />
    </clipPath>
    <clipPath
       id="a4f1fa667-79eb-4314-9f2e-a1c4c80fdc248783f273-3cca-43ec-bfd2-753632006e09">
      <path
         d="M 0,-0.25 H 5.7315434 V -6.8806797 H 0 Z"
         id="path856" />
    </clipPath>
  </defs>
  <sodipodi:namedview
     id="base"
     pagecolor="#ffffff"
     bordercolor="#666666"
     borderopacity="1.0"
     inkscape:pageopacity="0.0"
     inkscape:pageshadow="2"
     inkscape:zoom="0.7"
     inkscape:cx="204.69436"
     inkscape:cy="270.62767"
     inkscape:document-units="mm"
     inkscape:current-layer="layer1"
     inkscape:document-rotation="0"
     showgrid="false"
     inkscape:window-width="1755"
     inkscape:window-height="1008"
     inkscape:window-x="38"
     inkscape:window-y="0"
     inkscape:window-maximized="0" />
  <metadata
     id="metadata5">
    <rdf:RDF>
      <cc:Work
         rdf:about="">
        <dc:format>image/svg+xml</dc:format>
        <dc:type
           rdf:resource="http://purl.org/dc/dcmitype/StillImage" />
        <dc:title></dc:title>
      </cc:Work>
    </rdf:RDF>
  </metadata>
  <g
     inkscape:label="Layer 1"
     inkscape:groupmode="layer"
     id="layer1">
    <g
       id="g839"
       transform="matrix(14.313488,0,0,14.313488,32.358088,149.5711)" />
    <g
       clip-path="url(#SvgjsClipPath1002)"
       id="g849"
       transform="matrix(14.147273,-0.1946645,0.1946645,14.147273,2.2855856,98.965448)">
      <g
         clip-path="url(#a4f1fa667-79eb-4314-9f2e-a1c4c80fdc248783f273-3cca-43ec-bfd2-753632006e09)"
         id="g843">
        <path
           d="m 5.6115137,-3.197792 c -0.059179,-2.461e-4 -0.1073594,0.047514 -0.1076316,0.1066931 0,0.6985928 -0.2744384,1.3553481 -0.7726853,1.849347 -0.4982963,0.49394956 -1.1607814,0.76601696 -1.8654498,0.76601696 -0.7046684,0 -1.3671535,-0.2720674 -1.8654498,-0.76601696 -0.4982469,-0.4939989 -0.77268526,-1.1507542 -0.77268526,-1.849347 -2.722e-4,-0.059179 -0.0484528,-0.1069392 -0.1076316,-0.1066931 -0.05917877,-2.461e-4 -0.1073594,0.047514 -0.1076316,0.1066931 0,0.3818724 0.07542609,0.7523345 0.22425309,1.1011123 0.14373931,0.3368736 0.34946929,0.6393683 0.61146012,0.8991363 0.26041175,0.25865561 0.56839925,0.46449497 0.90699015,0.60617488 0.3518402,0.14754272 0.7255131,0.22232668 1.1106949,0.22232668 0.3851818,0 0.7588547,-0.074784 1.1106949,-0.22232668 C 4.3150328,-0.62635533 4.6230203,-0.83219469 4.883432,-1.0908503 5.1454229,-1.3506183 5.3511529,-1.653113 5.4948922,-1.9899866 5.6437192,-2.3387644 5.7191453,-2.7092265 5.7191453,-3.0910989 5.7188731,-3.1502776 5.6706924,-3.1980381 5.6115137,-3.197792 M 2.865747,-0.90053153 c 0.5781679,0 1.1217594,-0.22321577 1.5306014,-0.62855077 0.408842,-0.4052856 0.6340336,-0.9441845 0.6340336,-1.5173636 0,-0.4879727 -0.3518402,-1.274538 -1.0457899,-2.3378631 -0.5110402,-0.7831076 -1.0290945,-1.4368004 -1.0342809,-1.4433205 -0.02051,-0.025748 -0.051646,-0.040734 -0.084564,-0.040702 -0.032919,-3.25e-5 -0.064054,0.014953 -0.084564,0.040702 -0.0042,0.00533 -0.3504078,0.4421342 -0.7555452,1.0286005 -0.011322,0.010523 -0.020191,0.023406 -0.025982,0.037738 -0.085772,0.1246347 -0.1700293,0.2503046 -0.252754,0.3769823 -0.6939497,1.0633251 -1.04578993,1.8498904 -1.04578993,2.3378631 0,0.5731791 0.22519159,1.112078 0.63403363,1.5173636 0.408842,0.405335 0.9524335,0.62855077 1.5306014,0.62855077 M 2.4799724,-6.069664 l 0.3003213,0.3884913 4.446e-4,4.94e-4 4.445e-4,5.927e-4 c 0.00375,0.00474 0.3789581,0.4782419 0.7488275,1.0451972 0.4813045,0.7377136 0.7356885,1.2950369 0.7356885,1.6117079 0,0.7652267 -0.6280075,1.3878006 -1.3999518,1.3878006 -0.7719443,0 -1.3999518,-0.6225739 -1.3999518,-1.3878006 0,-0.3765871 0.3599411,-1.0930609 1.0158072,-2.0244521 l 0.2485061,0.3233394 c -0.08081,0.1053594 -0.2458881,0.3258585 -0.4131394,0.5821195 -0.3155844,0.483626 -0.475624,0.8449994 -0.475624,1.0740438 0,0.5599906 0.4595706,1.0155603 1.0244019,1.0155603 0.5648313,0 1.0244019,-0.4555697 1.0244019,-1.0155603 0,-0.2290444 -0.1600396,-0.5904178 -0.4756734,-1.0740438 C 3.1875057,-4.4900134 2.9644381,-4.772108 2.9508051,-4.7892974 L 2.2336892,-5.7223681 c 0.08098,-0.1165515 0.1630782,-0.2323222 0.2462832,-0.3472959 m 0.3857746,1.52092 c 0.2855522,0.376192 0.8090893,1.1370224 0.8090893,1.4806137 0,0.4422824 -0.3629541,0.8021247 -0.8090893,0.8021247 -0.4461352,0 -0.8091387,-0.3598423 -0.8091387,-0.8021247 0,-0.3433937 0.5236359,-1.1043723 0.8091387,-1.4806137 M 1.9267489,-5.2670454 c 0.058965,-0.090305 0.1187184,-0.1800917 0.1792543,-0.2693507 l 0.2386764,0.3105955 C 1.8371465,-4.511105 1.250532,-3.5672663 1.250532,-3.0231809 c 0,0.8829348 0.7245746,1.6012362 1.615215,1.6012362 0.8906404,0 1.615215,-0.7183014 1.615215,-1.6012362 0,-0.3632504 -0.2594223,-0.9449254 -0.7710553,-1.7289715 C 3.3380121,-5.322022 2.9609805,-5.7986339 2.9505581,-5.8117729 L 2.6118075,-6.250005 c 0.083522,-0.1131674 0.1681723,-0.2254972 0.2539395,-0.3369723 0.166708,0.2163499 0.5549029,0.7312429 0.9389981,1.3199319 0.6609538,1.0130411 1.0103243,1.780935 1.0103243,2.2205995 0,0.5161773 -0.2027663,1.0014827 -0.5709562,1.366462 -0.3681406,0.3650287 -0.857694,0.5660168 -1.3783662,0.5660168 -0.5206722,0 -1.0102256,-0.2009881 -1.3783662,-0.5660168 -0.36819,-0.3649793 -0.57095623,-0.8502847 -0.57095623,-1.366462 0,-0.4396645 0.34937053,-1.2075584 1.01032433,-2.2205995 m 0.9389981,2.6298861 c 0.2744878,0 0.4978023,-0.2213882 0.4978023,-0.493505 0,-0.2385282 -0.3442334,-0.6838731 -0.4132381,-0.7707094 -0.020496,-0.025766 -0.051641,-0.040756 -0.084564,-0.040701 -0.032924,-5.43e-5 -0.064068,0.014936 -0.084564,0.040701 -0.069005,0.086836 -0.4132381,0.5321812 -0.4132381,0.7707094 0,0.2721168 0.2233145,0.493505 0.4978023,0.493505 M 2.76019,-3.5038431 c 0.03392,-0.051886 0.069117,-0.1029267 0.105557,-0.153075 0.03644,0.050148 0.071637,0.1011888 0.105557,0.153075 0.1641888,0.2518648 0.1769821,0.3493211 0.1769821,0.3731788 0,0.1544087 -0.1267474,0.2800694 -0.2825391,0.2800694 -0.1557917,0 -0.2825391,-0.1256607 -0.2825391,-0.2800694 0,-0.023858 0.012793,-0.121314 0.1769821,-0.3731788"
           fill="#67a97b"
           fill-rule="nonzero"
           id="path841" />
      </g>
      <g
         clip-path="url(#a4f1fa667-79eb-4314-9f2e-a1c4c80fdc248783f273-3cca-43ec-bfd2-753632006e09)"
         id="g847">
        <path
           d="m 5.6115137,-3.197792 c -0.059179,-2.461e-4 -0.1073594,0.047514 -0.1076316,0.1066931 0,0.6985928 -0.2744384,1.3553481 -0.7726853,1.849347 -0.4982963,0.49394956 -1.1607814,0.76601696 -1.8654498,0.76601696 -0.7046684,0 -1.3671535,-0.2720674 -1.8654498,-0.76601696 -0.4982469,-0.4939989 -0.77268526,-1.1507542 -0.77268526,-1.849347 -2.722e-4,-0.059179 -0.0484528,-0.1069392 -0.1076316,-0.1066931 -0.05917877,-2.461e-4 -0.1073594,0.047514 -0.1076316,0.1066931 0,0.3818724 0.07542609,0.7523345 0.22425309,1.1011123 0.14373931,0.3368736 0.34946929,0.6393683 0.61146012,0.8991363 0.26041175,0.25865561 0.56839925,0.46449497 0.90699015,0.60617488 0.3518402,0.14754272 0.7255131,0.22232668 1.1106949,0.22232668 0.3851818,0 0.7588547,-0.074784 1.1106949,-0.22232668 C 4.3150328,-0.62635533 4.6230203,-0.83219469 4.883432,-1.0908503 5.1454229,-1.3506183 5.3511529,-1.653113 5.4948922,-1.9899866 5.6437192,-2.3387644 5.7191453,-2.7092265 5.7191453,-3.0910989 5.7188731,-3.1502776 5.6706924,-3.1980381 5.6115137,-3.197792 Z M 2.865747,-0.90053153 c 0.5781679,0 1.1217594,-0.22321577 1.5306014,-0.62855077 0.408842,-0.4052856 0.6340336,-0.9441845 0.6340336,-1.5173636 0,-0.4879727 -0.3518402,-1.274538 -1.0457899,-2.3378631 -0.5110402,-0.7831076 -1.0290945,-1.4368004 -1.0342809,-1.4433205 -0.02051,-0.025748 -0.051646,-0.040734 -0.084564,-0.040702 -0.032919,-3.25e-5 -0.064054,0.014953 -0.084564,0.040702 -0.0042,0.00533 -0.3504078,0.4421342 -0.7555452,1.0286005 -0.011322,0.010523 -0.020191,0.023406 -0.025982,0.037738 -0.085772,0.1246347 -0.1700293,0.2503046 -0.252754,0.3769823 -0.6939497,1.0633251 -1.04578993,1.8498904 -1.04578993,2.3378631 0,0.5731791 0.22519159,1.112078 0.63403363,1.5173636 0.408842,0.405335 0.9524335,0.62855077 1.5306013,0.62855047 z M 2.4799724,-6.069664 l 0.3003213,0.3884913 4.446e-4,4.94e-4 4.445e-4,5.927e-4 c 0.00375,0.00474 0.3789581,0.4782419 0.7488275,1.0451972 0.4813045,0.7377136 0.7356885,1.2950369 0.7356885,1.6117079 0,0.7652267 -0.6280075,1.3878006 -1.3999518,1.3878006 -0.7719443,0 -1.3999518,-0.6225739 -1.3999518,-1.3878006 0,-0.3765871 0.3599411,-1.0930609 1.0158072,-2.0244521 l 0.2485061,0.3233394 c -0.08081,0.1053594 -0.2458881,0.3258585 -0.4131394,0.5821195 -0.3155844,0.483626 -0.475624,0.8449994 -0.475624,1.0740438 0,0.5599906 0.4595706,1.0155603 1.0244019,1.0155603 0.5648313,0 1.0244019,-0.4555697 1.0244019,-1.0155603 0,-0.2290444 -0.1600396,-0.5904178 -0.4756734,-1.0740438 C 3.1875057,-4.4900134 2.9644381,-4.772108 2.9508051,-4.7892974 L 2.2336892,-5.7223681 c 0.08098,-0.1165515 0.1630782,-0.2323222 0.2462832,-0.3472959 z m 0.3857746,1.52092 c 0.2855522,0.376192 0.8090893,1.1370224 0.8090893,1.4806137 0,0.4422824 -0.3629541,0.8021247 -0.8090893,0.8021247 -0.4461352,0 -0.8091387,-0.3598423 -0.8091387,-0.8021247 0,-0.3433937 0.5236359,-1.1043723 0.8091387,-1.4806137 z M 1.9267489,-5.2670454 c 0.058965,-0.090305 0.1187184,-0.1800917 0.1792543,-0.2693507 l 0.2386764,0.3105955 C 1.8371465,-4.511105 1.250532,-3.5672663 1.250532,-3.0231809 c 0,0.8829348 0.7245746,1.6012362 1.615215,1.6012362 0.8906404,0 1.615215,-0.7183014 1.615215,-1.6012362 0,-0.3632504 -0.2594223,-0.9449254 -0.7710553,-1.7289715 C 3.3380121,-5.322022 2.9609805,-5.7986339 2.9505581,-5.8117729 L 2.6118075,-6.250005 c 0.083522,-0.1131674 0.1681723,-0.2254972 0.2539395,-0.3369723 0.166708,0.2163499 0.5549029,0.7312429 0.9389981,1.3199319 0.6609538,1.0130411 1.0103243,1.780935 1.0103243,2.2205995 0,0.5161773 -0.2027663,1.0014827 -0.5709562,1.366462 -0.3681406,0.3650287 -0.857694,0.5660168 -1.3783662,0.5660168 -0.5206722,0 -1.0102256,-0.2009881 -1.3783662,-0.5660168 -0.36819,-0.3649793 -0.57095623,-0.8502847 -0.57095623,-1.366462 0,-0.4396645 0.34937053,-1.2075584 1.01032433,-2.2205995 z m 0.9389981,2.6298861 c 0.2744878,0 0.4978023,-0.2213882 0.4978023,-0.493505 0,-0.2385282 -0.3442334,-0.6838731 -0.4132381,-0.7707094 -0.020496,-0.025766 -0.051641,-0.040756 -0.084564,-0.040701 -0.032924,-5.43e-5 -0.064068,0.014936 -0.084564,0.040701 -0.069005,0.086836 -0.4132381,0.5321812 -0.4132381,0.7707094 0,0.2721168 0.2233145,0.493505 0.4978019,0.493505 z M 2.76019,-3.5038431 c 0.03392,-0.051886 0.069117,-0.1029267 0.105557,-0.153075 0.03644,0.050148 0.071637,0.1011888 0.105557,0.153075 0.1641888,0.2518648 0.1769821,0.3493211 0.1769821,0.3731788 0,0.1544087 -0.1267474,0.2800694 -0.2825391,0.2800694 -0.1557917,0 -0.2825391,-0.1256607 -0.2825391,-0.2800694 0,-0.023858 0.012793,-0.121314 0.1769821,-0.3731788 z"
           fill="none"
           fill-rule="nonzero"
           stroke-dasharray="none"
           stroke-miterlimit="10"
           stroke-linejoin="miter"
           stroke-linecap="butt"
           stroke-width="0.0246975"
           stroke="#67a97b"
           id="path845" />
      </g>
    </g>
  </g>
</svg>
